<svg aria-hidden="true" style="position:absolute;width:0;height:0;overflow:hidden" xmlns="http://www.w3.org/2000/svg">
<defs>
<symbol id="icon-close" viewBox="0 0 32 32">
<path d="M31.439 3.166 28.273 0 15.72 12.553 3.167 0 .001 3.166l12.553 12.553L.001 28.272l3.166 3.166L15.72 18.885l12.553 12.553 3.166-3.166-12.553-12.553L31.439 3.166z"/></symbol>
<symbol id="icon-menu" viewBox="0 0 48 32">
<path d="M0 5.333V0h48v5.333H0zm0 13.334h48v-5.333H0v5.333zM0 32h48v-5.333H0V32z"/>
</symbol>
<symbol id="icon-cart" viewBox="0 0 18 18">
<path d="M14.312 9a1.5 1.5 0 0 0 1.459-1.154l1.181-4.982A1.5 1.5 0 0 0 15.497 1H2.003a1 1 0 0 0 0 2h1v8.5A1.5 1.5 0 0 0 4.502 13h10.496a1 1 0 0 0 0-2H5.002V9h9.31zm-9.31-6h9.863l-.948 4H5.002V3zm.5 11a1.5 1.5 0 1 0 0 3 1.5 1.5 0 0 0 0-3zm7.996 0a1.5 1.5 0 1 0 0 2.998 1.5 1.5 0 0 0 0-2.998z"/>
</symbol>
</defs>
</svg>